<?xml version="1.0" encoding="UTF-8" standalone="no"?>
<svg width="200" height="200" xmlns="http://www.w3.org/2000/svg">
    <!-- Background -->
    <rect width="200" height="200" fill="white"/>
    
    <!-- This is a dummy QR code pattern that you can replace later -->
    <rect x="20" y="20" width="160" height="160" fill="black"/>
    <rect x="30" y="30" width="140" height="140" fill="white"/>
    <rect x="40" y="40" width="120" height="120" fill="black"/>
    <rect x="50" y="50" width="100" height="100" fill="white"/>
    <rect x="60" y="60" width="80" height="80" fill="black"/>
    <rect x="70" y="70" width="60" height="60" fill="white"/>
    <rect x="80" y="80" width="40" height="40" fill="black"/>
    
    <!-- QR code positioning patterns -->
    <rect x="20" y="20" width="30" height="30" fill="black"/>
    <rect x="25" y="25" width="20" height="20" fill="white"/>
    <rect x="30" y="30" width="10" height="10" fill="black"/>
    
    <rect x="150" y="20" width="30" height="30" fill="black"/>
    <rect x="155" y="25" width="20" height="20" fill="white"/>
    <rect x="160" y="30" width="10" height="10" fill="black"/>
    
    <rect x="20" y="150" width="30" height="30" fill="black"/>
    <rect x="25" y="155" width="20" height="20" fill="white"/>
    <rect x="30" y="160" width="10" height="10" fill="black"/>
    
    <!-- Data pattern elements (simplified representation) -->
    <rect x="90" y="30" width="10" height="10" fill="black"/>
    <rect x="110" y="40" width="10" height="10" fill="black"/>
    <rect x="40" y="90" width="10" height="10" fill="black"/>
    <rect x="120" y="120" width="10" height="10" fill="black"/>
    <rect x="70" y="150" width="10" height="10" fill="black"/>
    <rect x="140" y="70" width="10" height="10" fill="black"/>
    <rect x="60" y="110" width="10" height="10" fill="black"/>
    <rect x="130" y="90" width="10" height="10" fill="black"/>
    <rect x="100" y="140" width="10" height="10" fill="black"/>
</svg>