<?xml version="1.0" encoding="UTF-8" standalone="no"?>
<svg width="800" height="1000" xmlns="http://www.w3.org/2000/svg">
    <!-- Background -->
    <rect width="800" height="1000" fill="#1a3a5f"/>
    
    <!-- Header -->
    <text x="400" y="70" font-family="Arial" font-size="48" fill="#f8d16c" text-anchor="middle" font-weight="bold">Budget AI</text>
    <text x="400" y="110" font-family="Arial" font-size="20" fill="#f0f8ff" text-anchor="middle">Transform your financial tracking with intelligent insights</text>
    
    <!-- Main sections -->
    <rect x="50" y="130" width="700" height="100" rx="10" fill="#234b70"/>
    <text x="70" y="160" font-family="Arial" font-size="24" fill="#f8d16c">Key Features</text>
    
    <!-- Feature icons and text -->
    <text x="120" y="190" font-family="Arial" font-size="18" fill="#f0f8ff">• Smart Visualizations</text>
    <text x="350" y="190" font-family="Arial" font-size="18" fill="#f0f8ff">• AI-Powered Analysis</text>
    <text x="580" y="190" font-family="Arial" font-size="18" fill="#f0f8ff">• Bank Integration</text>
    <text x="120" y="220" font-family="Arial" font-size="18" fill="#f0f8ff">• Responsive Design</text>
    <text x="350" y="220" font-family="Arial" font-size="18" fill="#f0f8ff">• Business Features</text>
    <text x="580" y="220" font-family="Arial" font-size="18" fill="#f0f8ff">• Excel Import</text>
    
    <!-- Dashboard Section -->
    <rect x="50" y="250" width="340" height="250" rx="10" fill="#234b70"/>
    <text x="70" y="280" font-family="Arial" font-size="22" fill="#f8d16c">Intuitive Dashboard</text>
    <!-- Placeholder for dashboard image -->
    <rect x="70" y="290" width="300" height="170" rx="5" fill="#ffffff" fill-opacity="0.1"/>
    <text x="220" y="375" font-family="Arial" font-size="14" fill="#f0f8ff" text-anchor="middle">[Dashboard Screenshot]</text>
    <text x="70" y="480" font-family="Arial" font-size="14" fill="#f0f8ff" width="300">Track spending patterns and visualize financial trends at a glance.</text>
    
    <!-- Analytics Section -->
    <rect x="410" y="250" width="340" height="250" rx="10" fill="#234b70"/>
    <text x="430" y="280" font-family="Arial" font-size="22" fill="#f8d16c">Advanced Analytics</text>
    <!-- Placeholder for analytics image -->
    <rect x="430" y="290" width="300" height="170" rx="5" fill="#ffffff" fill-opacity="0.1"/>
    <text x="580" y="375" font-family="Arial" font-size="14" fill="#f0f8ff" text-anchor="middle">[Analytics Screenshot]</text>
    <text x="430" y="480" font-family="Arial" font-size="14" fill="#f0f8ff" width="300">Dive deep into your spending habits with sophisticated analytics.</text>
    
    <!-- Expense Management Section -->
    <rect x="50" y="520" width="340" height="250" rx="10" fill="#234b70"/>
    <text x="70" y="550" font-family="Arial" font-size="22" fill="#f8d16c">Expense Management</text>
    <!-- Placeholder for expense image -->
    <rect x="70" y="560" width="300" height="170" rx="5" fill="#ffffff" fill-opacity="0.1"/>
    <text x="220" y="645" font-family="Arial" font-size="14" fill="#f0f8ff" text-anchor="middle">[Expense Tracking Screenshot]</text>
    <text x="70" y="750" font-family="Arial" font-size="14" fill="#f0f8ff" width="300">Effortlessly track and categorize expenses with our clean interface.</text>
    
    <!-- Bank Integration Section -->
    <rect x="410" y="520" width="340" height="250" rx="10" fill="#234b70"/>
    <text x="430" y="550" font-family="Arial" font-size="22" fill="#f8d16c">Bank Integration</text>
    <!-- Placeholder for bank integration image -->
    <rect x="430" y="560" width="300" height="170" rx="5" fill="#ffffff" fill-opacity="0.1"/>
    <text x="580" y="645" font-family="Arial" font-size="14" fill="#f0f8ff" text-anchor="middle">[Bank Connection Screenshot]</text>
    <text x="430" y="750" font-family="Arial" font-size="14" fill="#f0f8ff" width="300">Connect securely to your accounts for automated transaction tracking.</text>
    
    <!-- Footer -->
    <line x1="50" y1="790" x2="750" y2="790" stroke="#4ca3ff" stroke-width="2"/>
    
    <!-- QR Code Section -->
    <text x="130" y="820" font-family="Arial" font-size="22" fill="#f8d16c">Try Budget AI Today</text>
    <!-- Placeholder for QR code -->
    <rect x="70" y="830" width="150" height="150" rx="5" fill="#ffffff"/>
    <rect x="90" y="850" width="110" height="110" fill="black"/>
    <rect x="100" y="860" width="90" height="90" fill="white"/>
    <rect x="110" y="870" width="70" height="70" fill="black"/>
    <rect x="120" y="880" width="50" height="50" fill="white"/>
    <rect x="130" y="890" width="30" height="30" fill="black"/>
    <!-- Pattern elements -->
    <rect x="90" y="850" width="20" height="20" fill="black"/>
    <rect x="180" y="850" width="20" height="20" fill="black"/>
    <rect x="90" y="940" width="20" height="20" fill="black"/>
    <text x="145" y="995" font-family="Arial" font-size="14" fill="#f0f8ff" text-anchor="middle">Scan to download</text>
    
    <!-- Contact Information -->
    <text x="600" y="820" font-family="Arial" font-size="22" fill="#f8d16c">Contact Us</text>
    <text x="600" y="850" font-family="Arial" font-size="16" fill="#f0f8ff">Email: info@budgetai.com</text>
    <text x="600" y="880" font-family="Arial" font-size="16" fill="#f0f8ff">Web: www.budgetai.com</text>
    <text x="600" y="910" font-family="Arial" font-size="16" fill="#f0f8ff">Phone: (555) 123-4567</text>
</svg>